<?xml version="1.0" encoding="utf-8"?>
<!-- Generator: Adobe Illustrator 18.0.0, SVG Export Plug-In . SVG Version: 6.00 Build 0)  -->
<!DOCTYPE svg PUBLIC "-//W3C//DTD SVG 1.1//EN" "http://www.w3.org/Graphics/SVG/1.1/DTD/svg11.dtd">
<svg version="1.1" id="Layer_1" xmlns="http://www.w3.org/2000/svg" xmlns:xlink="http://www.w3.org/1999/xlink" x="0px" y="0px"
	 viewBox="0 0 595.3 595.3" enable-background="new 0 0 595.3 595.3" xml:space="preserve">
<path fill="#5D5E5E" d="M427.6,512.1H168.9c-1.6,0-2.9-1.3-2.9-2.9v-28.3c0-1.6,1.3-2.9,2.9-2.9h258.7c1.6,0,2.9,1.3,2.9,2.9v28.3
	C430.5,510.8,429.2,512.1,427.6,512.1z"/>
<g>
	<path fill="#FFFFFF" stroke="#5D5E5E" stroke-width="3" stroke-linecap="round" stroke-miterlimit="10" d="M467.8,237.8
		c-1.4-0.6-3-1-4.7-1c-6.4,0-11.5,5.2-11.5,11.5c0,2.3,0.7,4.5,1.9,6.3"/>
	<path fill="#FFFFFF" stroke="#5D5E5E" stroke-width="3" stroke-linecap="round" stroke-miterlimit="10" d="M469.1,243.2
		c-0.9-1.9-1.3-4.1-1.3-6.4c0-8.6,7-15.6,15.6-15.6c8.6,0,15.6,7,15.6,15.6c0,1.4-0.2,2.8-0.5,4.1"/>
	<path fill="#FFFFFF" stroke="#5D5E5E" stroke-width="3" stroke-linecap="round" stroke-miterlimit="10" d="M510.4,246.4
		c-1.1-3.6-4.4-6.2-8.3-6.2c-4.8,0-8.7,3.9-8.7,8.7"/>
	<path fill="#FFFFFF" stroke="#5D5E5E" stroke-width="3" stroke-linecap="round" stroke-miterlimit="10" d="M519.5,254.6
		c0.5-0.9,0.9-2,0.9-3.1c0-3.3-2.7-6.1-6.1-6.1c-1.9,0-3.6,0.9-4.7,2.2"/>
	
		<line fill="#FFFFFF" stroke="#5D5E5E" stroke-width="3" stroke-linecap="round" stroke-miterlimit="10" x1="447.1" y1="255" x2="469.7" y2="255"/>
	
		<line fill="#FFFFFF" stroke="#5D5E5E" stroke-width="3" stroke-linecap="round" stroke-miterlimit="10" x1="530.5" y1="255" x2="534.8" y2="255"/>
	
		<line fill="#FFFFFF" stroke="#5D5E5E" stroke-width="3" stroke-linecap="round" stroke-miterlimit="10" x1="476.9" y1="255" x2="524.9" y2="255"/>
</g>
<g>
	<path fill="#FFFFFF" stroke="#5D5E5E" stroke-width="3" stroke-linecap="round" stroke-miterlimit="10" d="M147.1,147.9
		c0.9-0.4,2-0.7,3.1-0.7c4.2,0,7.6,3.4,7.6,7.6c0,1.5-0.5,2.9-1.2,4.1"/>
	<path fill="#FFFFFF" stroke="#5D5E5E" stroke-width="3" stroke-linecap="round" stroke-miterlimit="10" d="M146.2,151.5
		c0.6-1.3,0.9-2.7,0.9-4.2c0-5.7-4.6-10.3-10.3-10.3c-5.7,0-10.3,4.6-10.3,10.3c0,0.9,0.1,1.8,0.4,2.7"/>
	<path fill="#FFFFFF" stroke="#5D5E5E" stroke-width="3" stroke-linecap="round" stroke-miterlimit="10" d="M119.1,153.6
		c0.7-2.4,2.9-4.1,5.5-4.1c3.2,0,5.7,2.6,5.7,5.7"/>
	<path fill="#FFFFFF" stroke="#5D5E5E" stroke-width="3" stroke-linecap="round" stroke-miterlimit="10" d="M113.1,158.9
		c-0.4-0.6-0.6-1.3-0.6-2c0-2.2,1.8-4,4-4c1.2,0,2.4,0.6,3.1,1.5"/>
	
		<line fill="#FFFFFF" stroke="#5D5E5E" stroke-width="3" stroke-linecap="round" stroke-miterlimit="10" x1="160.7" y1="159.2" x2="145.8" y2="159.2"/>
	
		<line fill="#FFFFFF" stroke="#5D5E5E" stroke-width="3" stroke-linecap="round" stroke-miterlimit="10" x1="105.8" y1="159.2" x2="103" y2="159.2"/>
	
		<line fill="#FFFFFF" stroke="#5D5E5E" stroke-width="3" stroke-linecap="round" stroke-miterlimit="10" x1="141.1" y1="159.2" x2="109.5" y2="159.2"/>
</g>
<path fill="none" stroke="#5D5E5E" stroke-width="3" stroke-linecap="round" stroke-miterlimit="10" d="M264.8,455V89.9
	c0-1.1-0.9-2-2-2h-85.9c-1.1,0-2,0.9-2,2V455"/>
<path fill="none" stroke="#5D5E5E" stroke-width="3" stroke-linecap="round" stroke-miterlimit="10" d="M250.5,455V104.5
	c0-1.1-0.9-2-2-2h-57.2c-1.1,0-2,0.9-2,2V455"/>
<path fill="#FFFFFF" stroke="#5D5E5E" stroke-width="3" stroke-linecap="round" stroke-miterlimit="10" d="M298.4,341.1
	c-3.5,0-6.9-0.7-10.2-2l-147.8-61c-11.3-4.7-18.3-15.2-18.2-27.5c0.1-11.9,7.6-22.6,18.6-27.1l147.3-60.8c1.8-0.7,3.6-1.3,5.5-1.6
	c5.2-0.9,10.3-0.3,15,1.6l147.8,61c11.2,4.6,18.2,15.1,18.2,27.2c0,12.2-7,22.6-18.2,27.2l-147.8,61
	C305.3,340.5,301.9,341.1,298.4,341.1z"/>
<path fill="none" stroke="#5D5E5E" stroke-width="3" stroke-linecap="round" stroke-miterlimit="10" d="M292,170.9L143.8,232
	c-16.9,7-16.9,31,0,37.9L292,331c4.1,1.7,8.8,1.7,12.9,0L453,269.9c16.9-7,16.9-31,0-37.9l-148.1-61.1
	C300.7,169.2,296.1,169.2,292,170.9z"/>
<g>
	<path fill="#FFFFFF" stroke="#5D5E5E" stroke-width="2.5" stroke-linecap="round" stroke-miterlimit="10" d="M181.7,246.3h5.5
		c0.5,0,0.9,0.4,0.9,0.9v24.1c0,0.5,0.4,0.9,0.9,0.9h10.9c0.5,0,0.9,0.4,0.9,0.9v4.3c0,0.5-0.4,0.9-0.9,0.9h-18.1
		c-0.5,0-0.9-0.4-0.9-0.9v-30.1C180.8,246.6,181.2,246.3,181.7,246.3z"/>
	<path fill="#FFFFFF" stroke="#5D5E5E" stroke-width="2.5" stroke-linecap="round" stroke-miterlimit="10" d="M215.5,270.6l-1.9,6.9
		c-0.1,0.4-0.4,0.6-0.8,0.6h-5.6c-0.6,0-1-0.6-0.8-1.1l9.2-30.1c0.1-0.4,0.4-0.6,0.8-0.6h8.1c0.4,0,0.7,0.2,0.8,0.6l9.4,30.1
		c0.2,0.6-0.2,1.1-0.8,1.1h-5.9c-0.4,0-0.7-0.3-0.8-0.6l-2.1-6.9c-0.1-0.4-0.4-0.6-0.8-0.6h-7.9
		C215.9,269.9,215.6,270.2,215.5,270.6z M222.6,264.5c0.6,0,1-0.6,0.8-1.1l-1.7-5.6c-0.5-1.9-1.1-4.3-1.6-6.1H220
		c-0.4,1.9-0.9,4.3-1.4,6.1l-1.6,5.7c-0.2,0.6,0.3,1.1,0.8,1.1H222.6z"/>
	<path fill="#FFFFFF" stroke="#5D5E5E" stroke-width="2.5" stroke-linecap="round" stroke-miterlimit="10" d="M240.5,271.7
		c0.1-0.5,0.7-0.8,1.2-0.6c1.9,0.8,4.4,1.5,7.1,1.5c3.3,0,5.1-1.4,5.1-3.5c0-1.9-1.5-3.1-5.3-4.4c-5.3-1.9-8.8-4.8-8.8-9.5
		c0-5.4,4.6-9.5,12-9.5c3.2,0,5.6,0.5,7.4,1.3c0.4,0.2,0.6,0.6,0.5,1l-1.1,4.1c-0.1,0.5-0.7,0.8-1.1,0.6c-1.3-0.5-3.3-1.1-5.7-1.1
		c-3.1,0-4.6,1.5-4.6,3.1c0,2,1.7,2.9,5.9,4.5c5.6,2.1,8.2,5,8.2,9.5c0,5.3-4.1,9.9-12.8,9.9c-3.2,0-6.5-0.8-8.4-1.7
		c-0.4-0.2-0.6-0.6-0.5-1L240.5,271.7z"/>
	<path fill="#FFFFFF" stroke="#5D5E5E" stroke-width="2.5" stroke-linecap="round" stroke-miterlimit="10" d="M281.2,277.5
		l-9.6-30.1c-0.2-0.6,0.2-1.1,0.8-1.1h6.1c0.4,0,0.7,0.3,0.8,0.6l3.7,12.8c1.1,3.8,2.1,7.4,2.8,11.4h0.1c0.8-3.8,1.8-7.6,2.9-11.2
		l3.9-13c0.1-0.4,0.4-0.6,0.8-0.6h5.8c0.6,0,1,0.6,0.8,1.1L290,277.5c-0.1,0.4-0.4,0.6-0.8,0.6H282
		C281.6,278.1,281.3,277.8,281.2,277.5z"/>
	<path fill="#FFFFFF" stroke="#5D5E5E" stroke-width="2.5" stroke-linecap="round" stroke-miterlimit="10" d="M324,264.6h-10
		c-0.5,0-0.9,0.4-0.9,0.9v5.8c0,0.5,0.4,0.9,0.9,0.9h11.4c0.5,0,0.9,0.4,0.9,0.9v4.2c0,0.5-0.4,0.9-0.9,0.9h-18.5
		c-0.5,0-0.9-0.4-0.9-0.9v-30.1c0-0.5,0.4-0.9,0.9-0.9h17.9c0.5,0,0.9,0.4,0.9,0.9v4.2c0,0.5-0.4,0.9-0.9,0.9H314
		c-0.5,0-0.9,0.4-0.9,0.9v4.9c0,0.5,0.4,0.9,0.9,0.9h10c0.5,0,0.9,0.4,0.9,0.9v4.1C324.8,264.2,324.4,264.6,324,264.6z"/>
	<path fill="#FFFFFF" stroke="#5D5E5E" stroke-width="2.5" stroke-linecap="round" stroke-miterlimit="10" d="M360.4,276
		c0,0.4-0.2,0.7-0.6,0.8c-2.3,0.7-6.2,1.6-10,1.6c-5.8,0-10-1.5-12.9-4.3c-2.9-2.8-4.5-6.9-4.5-11.6c0-10.6,7.7-16.6,18.2-16.6
		c3.6,0,6.4,0.6,8.1,1.2c0.4,0.2,0.6,0.6,0.5,1l-1.1,4.1c-0.1,0.5-0.7,0.8-1.1,0.6c-1.6-0.6-3.6-1-6.5-1c-6,0-10.6,3.4-10.6,10.3
		c0,6.6,4.2,10.4,10.1,10.4c1.1,0,2.1-0.1,2.8-0.2c0.4-0.1,0.7-0.4,0.7-0.8v-5.2c0-0.5-0.4-0.9-0.9-0.9h-3.2c-0.5,0-0.9-0.4-0.9-0.9
		v-3.9c0-0.5,0.4-0.9,0.9-0.9h10.1c0.5,0,0.9,0.4,0.9,0.9V276z"/>
	<path fill="#FFFFFF" stroke="#5D5E5E" stroke-width="2.5" stroke-linecap="round" stroke-miterlimit="10" d="M374.5,270.6l-1.9,6.9
		c-0.1,0.4-0.4,0.6-0.8,0.6h-5.6c-0.6,0-1-0.6-0.8-1.1l9.2-30.1c0.1-0.4,0.4-0.6,0.8-0.6h8.1c0.4,0,0.7,0.2,0.8,0.6l9.4,30.1
		c0.2,0.6-0.2,1.1-0.8,1.1h-5.9c-0.4,0-0.7-0.2-0.8-0.6l-2.1-6.9c-0.1-0.4-0.4-0.6-0.8-0.6h-7.9
		C374.9,269.9,374.6,270.2,374.5,270.6z M381.6,264.5c0.6,0,1-0.6,0.8-1.1l-1.7-5.6c-0.5-1.9-1.1-4.3-1.6-6.1H379
		c-0.4,1.9-0.9,4.3-1.4,6.1l-1.6,5.7c-0.2,0.6,0.3,1.1,0.8,1.1H381.6z"/>
	<path fill="#FFFFFF" stroke="#5D5E5E" stroke-width="2.5" stroke-linecap="round" stroke-miterlimit="10" d="M400,271.7
		c0.1-0.5,0.7-0.8,1.2-0.6c1.9,0.8,4.5,1.5,7.1,1.5c3.3,0,5.1-1.4,5.1-3.5c0-1.9-1.5-3.1-5.3-4.4c-5.3-1.9-8.8-4.8-8.8-9.5
		c0-5.4,4.6-9.5,12-9.5c3.2,0,5.6,0.5,7.4,1.3c0.4,0.2,0.6,0.6,0.5,1l-1.1,4.1c-0.1,0.5-0.7,0.8-1.1,0.6c-1.3-0.5-3.3-1.1-5.7-1.1
		c-3.1,0-4.6,1.5-4.6,3.1c0,2,1.7,2.9,5.9,4.5c5.6,2.1,8.2,5,8.2,9.5c0,5.3-4.1,9.9-12.8,9.9c-3.2,0-6.5-0.8-8.4-1.7
		c-0.4-0.2-0.6-0.6-0.5-1L400,271.7z"/>
</g>
<g>
	<g>
		<path fill="#5D5E5E" d="M275.5,231.1c-0.6,2.6,2.1,3.2,4.1,3.2c2.5,0,4.5-1.5,6.2-3.4c-0.4,2.8,0.4,5.3,4.3,3.4
			c1.8-0.9,3.5-1.9,5.1-3c0,0.4,0,0.8,0.1,1.2c0.3,2.3,2.6,3.5,4.7,2.5c2.9-1.3,5.5-4.1,6.4-7.3c1.8,0.2,3.6,0.2,5.4-0.1
			c-0.9,2-1.5,4.8,0.7,5.6c3,1.2,5.4-0.8,7.4-3c0,2.5,2,3.6,5.8,2c0.4-0.2,0.8-0.4,1.3-0.6c0.1,0.5,0.2,1,0.5,1.4
			c1.7,3,5.2,2.6,7.6,0.7c1.9-1.5,3.8-4.6,5.9-6.8c-1.3,2-1.6,4.4,0.5,6.5c3.2,3.2,7.3-2.3,8.1-5.5c1.7-0.1,3.6-0.8,5.2-1.5
			c-0.9,2.4-1.3,5.2,1.2,6.6c2.3,1.3,4.7-0.9,6.5-3.4c-0.1,2.1,0.3,4,2.6,3.9c3.4-0.1,5.8-3.1,7.7-6.1c0,0.2,0,0.5,0.1,0.7
			c0.1,1,0.1,2-0.2,2.9c-2.1,0.4-3.6,1.1-3.6,2.3c0,1.5,2,1.6,3.1,1.1c0.9-0.4,1.5-1,1.9-1.6c0.2,0,0.5,0,0.6-0.1
			c3.6-0.4,7.2-0.1,10.7-0.6c1.1-0.2,0.6-1.9-0.5-1.7c-1.3,0.2-6.2-0.1-10.3,0.3c0.3-2.5-0.5-5.5,0.9-7.6c0.6-1-0.9-1.8-1.5-0.9
			c-1.7,2.4-3.2,5-5.2,7.3c-1.1,1.3-4.7,3.3-4.6-0.1c0-1.4,0.6-2.9,1-4.3c0.3-1-1.1-1.5-1.6-0.7c-1.1,2-2.4,3.9-3.9,5.6
			c-1.7,1.8-4.1,1.5-3.7-1.3c0.2-1.3,0.8-2.5,1.4-3.6c0.5-0.8-0.4-1.6-1.2-1.2c-1.4,0.6-4.4,1.2-6.5,2.3c-0.1-1.2-0.6-2.6-1.7-2.9
			c0-0.4-0.2-0.7-0.6-0.8c-6-1-9.1,5.8-12.7,9.3c-1.5,1.5-4.7,2.7-5.6-0.1c-0.1-0.4-0.2-0.8-0.2-1.3c4.7-3.1,9.7-8.9,9.9-13.7
			c0-0.5-0.4-0.9-0.9-0.9c-4.5,0.1-10.1,7.6-10.8,13.2c-3.1,2-7,3.5-4.6-1.7c0.4-0.9-0.7-1.8-1.4-1.1c-1.2,1.3-2.3,2.6-3.5,3.8
			c-1.3,1.6-2.8,1.7-4.7,0.3c-0.1-1.3,0.8-2.7,1.4-3.7c0.4-0.7-0.2-1.5-1-1.3c-2.4,0.8-4.7,0.8-7.3,0.4c-0.4-0.1-1,0.1-1.1,0.6
			c-0.4,2.2-1.7,3.8-3.2,5.3c-0.9,0.9-3.7,3.1-4.7,0.2c-0.2-0.7-0.2-1.4,0-2c4.1-3.3,7.5-7.4,8.7-12.7c0.1-0.6-0.3-1.1-0.9-1.1
			c-4.9-0.1-8.5,7.1-9.4,12.5c-0.3,0.2-0.5,0.4-0.8,0.6c-1.5,1-3,2.1-4.6,3.1c-3.7,2.2-2.4-2.7-1.5-4.7c0.3-0.2,0.4-0.5,0.3-0.8
			c0-0.4-0.2-0.7-0.6-0.8C284.4,221.8,276.5,226.2,275.5,231.1z M345.3,225.1c0,0.2,0,0.3,0.1,0.5c0.4,1.4,1.2,2.1,2.2,2.4
			c0,0.1-0.1,0.2-0.1,0.2c-0.3,1.3-3.9,7.1-5.5,3.1C340.8,228.4,343,226.2,345.3,225.1z M329.6,226.7c1-2.7,3.7-7.8,6.9-8.8
			c-0.7,3.7-4.3,6.8-6.9,9.2c-0.1,0.1-0.2,0.2-0.3,0.2C329.4,227.2,329.5,227,329.6,226.7z M303.4,218.2c-1.1,3.6-3.1,6.3-5.8,8.7
			C298.6,223.8,300.7,219.3,303.4,218.2z M286.7,227c-0.7,0.9-1.4,1.8-2.1,2.7c-0.4,0.4-8.2,5.7-7.3,1.3
			C277.9,227.9,284,224.5,286.7,227z"/>
		<path fill="#5D5E5E" d="M253.7,238.5c1-2.4,3.5-4.8,5.2-6.8c0.6-0.7,1.3-1.5,1.9-2.2c3.1,1.1,6.7-0.2,9.9,0.5
			c2.2,0.5,3.2-2.9,0.9-3.4c-1.6-0.3-3.2-0.3-4.9-0.3c-0.8,0-2,0.2-3,0.2c1.4-1.4,2.9-2.9,4.2-4.4c5.7,0.3,11.4,0.1,17.1,0.7
			c2.3,0.3,2.2-3.3,0-3.5c-8.4-0.9-17,0.1-25.4-1.7c-2.2-0.5-3.2,2.9-0.9,3.4c1.6,0.3,3.2,0.6,4.8,0.8c-2.4,2.5-4.9,4.9-7.2,7.5
			c-1.9,2.1-4.6,4.9-5.7,7.5C249.7,238.8,252.8,240.6,253.7,238.5z"/>
	</g>
	<polygon fill="#5D5E5E" points="215.6,236.9 217.6,236.9 217.6,223.6 222.2,223.6 222.2,222 211.1,222 211.1,223.6 215.6,223.6 	
		"/>
	<path fill="#5D5E5E" d="M231.7,237.2L231.7,237.2c3.8,0,7-2.8,7-7.9c0-4.4-2.6-7.6-6.8-7.6c-4,0-6.9,3.1-6.9,7.9
		C225,234.1,227.7,237.2,231.7,237.2z M231.8,223.3c3.2,0,4.8,3.1,4.8,6.1c0,3.4-1.7,6.2-4.8,6.2h0c-3,0-4.8-2.9-4.8-6.1
		C227,226.3,228.6,223.3,231.8,223.3z"/>
</g>
<g>
	
		<circle fill="#FFFFFF" class="w" stroke="#5D5E5E" stroke-width="3" stroke-linecap="round" stroke-miterlimit="10" cx="199.1" cy="196" r="16.5"/>
	
		<circle fill="#FFFFFF" class="e" stroke="#5D5E5E" stroke-width="3" stroke-linecap="round" stroke-miterlimit="10" cx="232.2" cy="196" r="16.5"/>
	
		<circle fill="#FFFFFF" class="l" stroke="#5D5E5E" stroke-width="3" stroke-linecap="round" stroke-miterlimit="10" cx="265.3" cy="196" r="16.5"/>
	
		<circle fill="#FFFFFF" class="c" stroke="#5D5E5E" stroke-width="3" stroke-linecap="round" stroke-miterlimit="10" cx="298.4" cy="196" r="16.5"/>
	
		<circle fill="#FFFFFF" class="o" stroke="#5D5E5E" stroke-width="3" stroke-linecap="round" stroke-miterlimit="10" cx="331.5" cy="196" r="16.5"/>
	
		<circle fill="#FFFFFF" class="m" stroke="#5D5E5E" stroke-width="3" stroke-linecap="round" stroke-miterlimit="10" cx="364.6" cy="196" r="16.5"/>
	
		<circle fill="#FFFFFF" class="e" stroke="#5D5E5E" stroke-width="3" stroke-linecap="round" stroke-miterlimit="10" cx="397.7" cy="196" r="16.5"/>
	<g>
		<path fill="#5D5E5E" d="M193.4,204.8l-4.3-16.9h2.3l2,8.6c0.5,2.1,1,4.2,1.3,5.8h0.1c0.3-1.7,0.8-3.7,1.4-5.9l2.3-8.5h2.3l2.1,8.6
			c0.5,2,0.9,4,1.2,5.8h0.1c0.4-1.9,0.8-3.7,1.4-5.8l2.2-8.5h2.2l-4.8,16.9h-2.3l-2.1-8.8c-0.5-2.2-0.9-3.8-1.1-5.5h-0.1
			c-0.3,1.7-0.7,3.3-1.3,5.5l-2.4,8.8H193.4z"/>
		<path fill="#5D5E5E" d="M236.6,196.9H230v6.1h7.3v1.8h-9.5v-16.9h9.1v1.8H230v5.3h6.6V196.9z"/>
		<path fill="#5D5E5E" d="M261.1,187.9h2.2V203h7.2v1.8h-9.4V187.9z"/>
		<path fill="#5D5E5E" d="M303.6,204.2c-0.8,0.4-2.4,0.8-4.5,0.8c-4.8,0-8.4-3-8.4-8.6c0-5.3,3.6-8.9,8.8-8.9c2.1,0,3.4,0.5,4,0.8
			l-0.5,1.8c-0.8-0.4-2-0.7-3.4-0.7c-4,0-6.6,2.5-6.6,7c0,4.1,2.4,6.8,6.5,6.8c1.3,0,2.7-0.3,3.6-0.7L303.6,204.2z"/>
		<path fill="#5D5E5E" d="M339.2,196.2c0,5.8-3.5,8.9-7.9,8.9c-4.5,0-7.6-3.5-7.6-8.6c0-5.4,3.3-8.9,7.9-8.9
			C336.2,187.6,339.2,191.2,339.2,196.2z M326.1,196.4c0,3.6,2,6.8,5.4,6.8c3.5,0,5.4-3.2,5.4-7c0-3.4-1.8-6.9-5.4-6.9
			C327.9,189.4,326.1,192.7,326.1,196.4z"/>
		<path fill="#5D5E5E" d="M371.1,197.4c-0.1-2.4-0.3-5.2-0.3-7.3h-0.1c-0.6,2-1.3,4.1-2.1,6.4l-3,8.2H364l-2.7-8.1
			c-0.8-2.4-1.5-4.6-2-6.6h-0.1c0,2.1-0.2,4.9-0.3,7.5l-0.5,7.2h-2.1l1.2-16.9h2.8l2.9,8.2c0.7,2.1,1.3,3.9,1.7,5.7h0.1
			c0.4-1.7,1-3.6,1.8-5.7l3-8.2h2.8l1.1,16.9h-2.1L371.1,197.4z"/>
		<path fill="#5D5E5E" d="M402,196.9h-6.6v6.1h7.3v1.8h-9.5v-16.9h9.1v1.8h-6.9v5.3h6.6V196.9z"/>
	</g>
</g>
<text transform="matrix(1 0 0 1 256.1314 302.8281)" fill="#5D5E5E" stroke="#5D5E5E" stroke-miterlimit="10" font-family="'MyriadPro-Regular'" font-size="18.4411" letter-spacing="5">NEVADA</text>
<path fill="#FFFFFF" stroke="#5D5E5E" stroke-width="2.8" stroke-linecap="round" stroke-miterlimit="10" d="M229.1,140.3l28.4-5.8
	c0.7-0.2,0.7-1.2-0.1-1.3l-29.4-3l11.8-15.8c0.5-0.6-0.3-1.4-0.9-0.9l-14.2,11.3l-4.4-30.7c-0.1-0.8-1.2-0.7-1.3,0l-3.6,32.2
	L201,114.4c-0.6-0.5-1.4,0.2-1,0.9l10.2,15.1l-28.3,2.8c-0.8,0.1-0.8,1.2-0.1,1.3l27.7,5.4l-10.5,13.4c-0.5,0.6,0.3,1.4,0.9,0.9
	l15.3-11.1l3.8,30.5c0.1,0.8,1.2,0.8,1.3,0l4.6-29.1l13.1,8.7c0.6,0.4,1.4-0.4,0.9-1L229.1,140.3z"/>
<line fill="none" stroke="#5D5E5E" stroke-width="3" stroke-linecap="round" stroke-miterlimit="10" x1="153.9" y1="455" x2="442.9" y2="455"/>
<line fill="none" stroke="#5D5E5E" stroke-width="3" stroke-linecap="round" stroke-miterlimit="10" x1="127.6" y1="467" x2="469.2" y2="467"/>
<g>
	<path fill="#FFFFFF" stroke="#5D5E5E" stroke-width="3" stroke-linecap="round" stroke-miterlimit="10" d="M378,126.3
		c-1.7-0.8-3.6-1.2-5.6-1.2c-7.6,0-13.8,6.2-13.8,13.8c0,2.8,0.8,5.4,2.2,7.5"/>
	<path fill="#FFFFFF" stroke="#5D5E5E" stroke-width="3" stroke-linecap="round" stroke-miterlimit="10" d="M379.6,132.9
		c-1-2.3-1.6-4.9-1.6-7.6c0-10.4,8.4-18.7,18.7-18.7c10.4,0,18.7,8.4,18.7,18.7c0,1.7-0.2,3.4-0.7,4.9"/>
	<path fill="#FFFFFF" stroke="#5D5E5E" stroke-width="3" stroke-linecap="round" stroke-miterlimit="10" d="M429,136.7
		c-1.3-4.3-5.3-7.5-10-7.5c-5.7,0-10.4,4.7-10.4,10.4"/>
	<path fill="#FFFFFF" stroke="#5D5E5E" stroke-width="3" stroke-linecap="round" stroke-miterlimit="10" d="M439.9,146.5
		c0.6-1.1,1-2.3,1-3.7c0-4-3.2-7.3-7.3-7.3c-2.3,0-4.3,1-5.6,2.7"/>
	
		<line fill="#FFFFFF" stroke="#5D5E5E" stroke-width="3" stroke-linecap="round" stroke-miterlimit="10" x1="353.3" y1="147" x2="380.3" y2="147"/>
	
		<line fill="#FFFFFF" stroke="#5D5E5E" stroke-width="3" stroke-linecap="round" stroke-miterlimit="10" x1="453.2" y1="147" x2="458.3" y2="147"/>
	
		<line fill="#FFFFFF" stroke="#5D5E5E" stroke-width="3" stroke-linecap="round" stroke-miterlimit="10" x1="389" y1="147" x2="446.4" y2="147"/>
</g>
<text transform="matrix(1 0 0 1 179.9989 500.7149)" fill="#FFFFFF" class="Lasvegas" font-family="'MyriadPro-Bold'" font-size="19.1048" letter-spacing="3">LAS VEGAS, NEVADA</text>
</svg>
